<svg xmlns="http://www.w3.org/2000/svg" xmlns:xlink="http://www.w3.org/1999/xlink" width="500" zoomAndPan="magnify" viewBox="0 0 375 374.999991" height="500" preserveAspectRatio="xMidYMid meet" version="1.0"><defs><g/><clipPath id="5712120d06"><path d="M 122.082031 57.179688 L 252.582031 57.179688 L 252.582031 204.929688 L 122.082031 204.929688 Z M 122.082031 57.179688 " clip-rule="nonzero"/></clipPath></defs><rect x="-37.5" width="450" fill="#ffffff" y="-37.499999" height="449.999989" fill-opacity="1"/><rect x="-37.5" width="450" fill="#e2ffd5" y="-37.499999" height="449.999989" fill-opacity="1"/><g clip-path="url(#5712120d06)"><path fill="#000000" d="M 250.75 127.617188 C 248.421875 126.609375 246.597656 127.832031 244.839844 127.664062 C 236.957031 126.90625 235.65625 131.921875 231.988281 127.21875 C 237.339844 127.984375 241.929688 126.171875 246.382812 123.785156 C 241.347656 123.917969 236.664062 126.933594 231.117188 125.261719 C 233.3125 124.035156 231.132812 124.207031 243.425781 123.589844 L 243.445312 122.863281 L 238.667969 122.042969 C 239.128906 121.4375 239.441406 120.808594 239.941406 120.433594 C 242.859375 118.238281 244.925781 122.878906 252.578125 117.59375 C 249.507812 118.191406 246.523438 119.566406 242.976562 118.28125 L 250.898438 113.527344 C 248.765625 113.527344 250.675781 112.898438 241.375 116.902344 C 241.757812 112.882812 245.476562 111.996094 248.246094 110.128906 C 244.898438 110.757812 241.515625 111.683594 240.367188 115.269531 C 238.527344 121 234.277344 121.09375 233.144531 121.988281 C 230.054688 124.433594 226.652344 124.957031 223 123.484375 C 224.28125 122.511719 225.671875 121.660156 226.800781 120.546875 C 228.019531 119.34375 229.308594 118.65625 231.027344 118.433594 C 233.769531 118.082031 236.585938 117.746094 238.941406 115.476562 L 235.449219 116.082031 L 235.183594 115.734375 L 239.984375 111.496094 L 239.644531 111.058594 C 239.113281 111.316406 238.53125 111.507812 238.054688 111.847656 C 230.554688 117.222656 233.960938 115.222656 229.78125 117.074219 C 230.277344 113.027344 232.101562 110.863281 235.824219 110.101562 C 238.476562 109.558594 241 108.378906 243.5625 107.433594 C 244.164062 107.210938 244.695312 106.796875 245.257812 106.46875 L 245.085938 106.195312 L 233.042969 109.390625 L 232.949219 109.121094 L 240.992188 104.875 L 240.734375 104.339844 L 235.257812 106.378906 L 234.925781 105.875 C 239.078125 102.164062 236 104.230469 245.058594 100.738281 L 244.867188 100.109375 L 237.199219 101.472656 C 239.089844 99.542969 241.675781 98.296875 242.851562 95.515625 C 242.480469 95.558594 242.28125 95.523438 242.171875 95.605469 C 238.613281 98.328125 234.882812 100.886719 233.1875 105.351562 C 232.019531 108.417969 232.25 108.515625 199.230469 126.367188 C 198.25 126.898438 197.347656 127.769531 196.3125 127.960938 C 195.214844 128.164062 193.714844 128.109375 192.929688 127.484375 C 192.292969 126.980469 190.878906 124.566406 193.425781 121.03125 C 198.609375 113.835938 205.585938 109.988281 214.507812 109.742188 C 225.691406 109.429688 225.613281 108.535156 228.28125 107.613281 L 228.121094 107.242188 L 217.582031 107.972656 L 217.492188 107.503906 L 220.898438 103.867188 L 220.492188 103.347656 C 214.640625 107.378906 214.621094 107.554688 213.792969 107.625 C 211.089844 107.847656 208.355469 107.699219 205.1875 107.699219 C 208.78125 104.914062 212.414062 103.109375 216.53125 102.722656 C 225.136719 101.90625 230.726562 103.285156 234.625 100.492188 L 223.707031 100.492188 C 225.785156 97.65625 227.984375 97.699219 231.46875 97.28125 C 233.976562 96.984375 236.734375 95.316406 237.992188 93.292969 C 231.476562 95.878906 231.339844 95.910156 229.179688 95.21875 C 232.546875 91.535156 237.632812 90.078125 240.5 85.945312 C 240.105469 85.863281 239.769531 85.878906 239.53125 86.039062 C 234.023438 89.765625 228.066406 92.878906 223.582031 97.984375 C 221.945312 99.847656 219.769531 100.324219 217.464844 100.179688 C 221.863281 92.414062 219.585938 95.542969 229.339844 90.484375 C 231.015625 89.617188 232.554688 88.488281 234.160156 87.476562 L 233.886719 86.945312 L 226.769531 89.53125 L 226.441406 89.136719 L 231.15625 82.964844 C 230.390625 83.351562 229.484375 83.542969 228.984375 84.101562 C 227.503906 85.75 226.011719 87.4375 224.855469 89.3125 C 223.949219 90.792969 222.957031 91.738281 221.285156 91.804688 L 220.183594 84.957031 L 230.898438 81.652344 L 230.710938 80.867188 L 219.964844 82.761719 C 220.792969 79.75 224.242188 79.066406 225.984375 76.285156 L 221.03125 78.691406 L 221.714844 72.320312 L 221.03125 72.175781 C 219.71875 77.597656 220.242188 75.273438 219.011719 81.109375 L 218.621094 81.109375 L 217.210938 75.871094 C 215.777344 78.75 218.574219 82.757812 217.640625 84.382812 C 216.546875 86.277344 214.847656 87.820312 213.394531 89.507812 L 212.777344 89.183594 C 212.609375 85.265625 212.476562 81.34375 212.25 77.425781 C 212.179688 76.152344 212.691406 75.382812 213.625 74.589844 C 218.761719 70.238281 220.796875 68.546875 219.34375 64.394531 C 216.484375 65.695312 214.894531 67.84375 213.988281 70.636719 C 213.679688 71.585938 213.160156 72.46875 212.734375 73.382812 C 212.988281 69.835938 213.132812 72.035156 214.382812 60.351562 L 213.808594 60.238281 L 211.429688 70.175781 L 211.042969 70.261719 L 209.714844 63.0625 C 208.445312 67.355469 209.433594 67.230469 210.839844 73.445312 C 211.226562 75.160156 210.425781 75.414062 205.933594 79.285156 C 207.5625 75.074219 206.816406 71.3125 205.648438 67.539062 C 205.332031 71.589844 206.464844 75.851562 203.515625 79.5 C 202.386719 73.707031 202.75 75.160156 204.40625 60.710938 C 204.5 59.914062 204.421875 59.097656 204.421875 58.292969 L 203.820312 58.273438 L 201.570312 70.074219 L 201.183594 70.105469 L 198.972656 62.234375 C 198.253906 65.808594 198.84375 68.726562 199.945312 71.609375 C 200.324219 72.589844 200.484375 73.660156 200.820312 75.003906 C 197.8125 73.898438 196.707031 71.5625 195.132812 69.167969 C 195.261719 75.757812 199.4375 76.566406 200.894531 78.816406 C 201.433594 79.644531 201.929688 81.164062 201.53125 81.792969 C 200.773438 82.988281 199.359375 83.765625 198.027344 84.878906 C 196.355469 80.558594 195.285156 76.46875 194.8125 72.207031 C 194.316406 67.765625 196.457031 64.003906 197.875 60.042969 C 194.90625 63.769531 192.449219 67.675781 193.25 72.722656 C 193.726562 75.714844 194.035156 78.765625 194.859375 81.660156 C 195.789062 84.90625 196.003906 87.785156 193.636719 90.554688 C 192.917969 91.394531 192.652344 92.199219 190.949219 96.3125 C 189.992188 91.429688 192.082031 84.53125 189.25 77.398438 C 187.941406 74.101562 189.730469 73.335938 193.261719 61.511719 C 193.621094 60.296875 193.316406 58.886719 193.316406 57.566406 L 192.820312 57.558594 L 190.589844 66.726562 L 190.097656 66.628906 L 189.015625 60.339844 L 188.386719 60.398438 C 188.539062 62.597656 188.472656 64.84375 188.90625 66.984375 C 189.335938 69.09375 188.519531 70.597656 187.449219 72.316406 C 186.171875 70.558594 185.589844 68.925781 186.019531 66.84375 C 186.441406 64.777344 186.4375 62.625 186.625 60.507812 L 186.023438 60.445312 L 184.753906 66.59375 L 184.28125 66.640625 L 182.101562 57.210938 C 181.109375 59.261719 181.441406 61.019531 181.933594 62.621094 C 184.5 70.996094 186.5 74.335938 185.894531 75.980469 C 183.300781 83.03125 184.046875 88.4375 184.046875 96.363281 C 182.9375 95.589844 181.992188 92.277344 179.609375 88.226562 C 178.496094 86.335938 178.96875 86.804688 181.53125 73.714844 C 182.640625 68.066406 180.0625 63.695312 176.601562 59.632812 C 178.0625 63.683594 180.667969 67.347656 180.085938 72.039062 C 179.542969 76.453125 178.527344 80.699219 176.808594 84.988281 C 175.6875 84.046875 174.75 83.175781 173.722656 82.417969 C 172.765625 81.710938 172.539062 80.828125 173.234375 79.972656 C 176.839844 75.546875 179.765625 74.976562 179.613281 69.53125 C 178.105469 71.910156 176.980469 74.140625 174.035156 75.03125 C 175.136719 70.632812 177.261719 66.703125 176.117188 61.898438 L 173.421875 70.707031 L 171.144531 58.289062 L 170.617188 58.367188 C 170.617188 59.132812 170.546875 59.910156 170.628906 60.667969 C 171.996094 73.171875 172.925781 75.320312 171.207031 79.453125 C 168.328125 75.714844 169.875 71.421875 169.296875 67.429688 C 168.34375 71.375 167.175781 75.285156 169.136719 79.347656 C 167.628906 78.074219 166.296875 76.882812 164.882812 75.792969 C 162.804688 74.195312 164.46875 73.066406 165.6875 67.871094 C 166.074219 66.222656 166.175781 64.511719 165.179688 63.140625 L 163.980469 69.976562 L 163.476562 69.976562 C 162.152344 63.46875 162.8125 66.078125 160.964844 60.222656 L 160.394531 60.394531 L 162.488281 73.417969 C 160.277344 70.34375 159.644531 66.058594 155.519531 64.5 C 153.265625 69.660156 158.6875 72.066406 161.378906 74.777344 C 162.980469 76.390625 162.878906 77.78125 162.042969 89.511719 L 161.320312 90.003906 C 160.902344 89.335938 160.621094 88.488281 160.035156 88.03125 C 157.265625 85.867188 156.285156 83.351562 157.753906 79.941406 C 158.214844 78.867188 157.988281 77.5 158.078125 76.269531 L 157.636719 76.238281 L 156.210938 81.3125 L 155.914062 81.253906 L 153.808594 72.351562 L 153.066406 72.492188 L 153.765625 78.46875 L 149.308594 76.707031 C 150.929688 79.167969 154.273438 79.761719 154.746094 83 C 150.402344 81.835938 150.300781 81.671875 144.039062 81.113281 L 143.945312 81.597656 L 154.714844 84.988281 L 153.648438 91.832031 C 149.457031 92.117188 149.996094 86.496094 145.230469 83.726562 C 144.726562 83.429688 144.144531 83.273438 143.742188 83.109375 L 148.15625 89.171875 L 147.804688 89.4375 L 140.660156 86.945312 L 140.476562 87.328125 C 142.644531 88.914062 140.398438 87.472656 152.027344 93.621094 C 154.808594 95.089844 153.917969 94.140625 157.496094 100.207031 C 153.21875 101.078125 151.546875 97.671875 141.882812 90.316406 C 140.230469 89.058594 136.34375 86.640625 134.488281 85.707031 C 137.207031 90.148438 142.390625 91.539062 145.925781 95.332031 C 142.25 96.195312 139.484375 94.648438 136.714844 93.128906 C 142.359375 100.175781 146.667969 94.960938 151.261719 100.472656 L 140.5625 100.472656 C 142.566406 101.925781 144.765625 102.207031 146.980469 102.304688 C 157.210938 102.75 161.40625 101.375 169.578125 107.664062 C 167.082031 107.664062 164.785156 107.511719 162.515625 107.710938 C 160.710938 107.875 159.472656 107.246094 158.199219 106.066406 C 157.003906 104.953125 155.535156 104.128906 154.1875 103.179688 L 153.894531 103.605469 L 157.476562 107.492188 L 157.300781 108.023438 L 146.832031 107.261719 C 147.652344 107.933594 148.554688 108.578125 149.523438 108.703125 C 152.898438 109.148438 156.292969 109.683594 159.679688 109.6875 C 167.707031 109.699219 174.273438 112.78125 179.535156 118.691406 C 180.875 120.199219 181.84375 122.117188 182.667969 123.984375 C 183.921875 126.832031 181.1875 129.582031 177.773438 127.652344 C 167.246094 121.699219 156.730469 115.726562 146.152344 109.875 C 139.753906 106.335938 142.46875 101.558594 131.917969 95.273438 C 133.132812 98.539062 136.183594 99.574219 137.847656 101.6875 L 129.933594 100.050781 L 129.734375 100.726562 C 134.632812 102.691406 135.464844 102.710938 137.433594 103.679688 C 138.371094 104.136719 139.054688 105.121094 139.855469 105.867188 L 139.5 106.316406 L 134.015625 104.144531 L 133.714844 104.777344 L 141.941406 109.132812 L 141.84375 109.335938 L 129.527344 106.140625 C 130.75 107.53125 130.738281 107.457031 140.40625 110.605469 C 143.4375 111.589844 144.851562 113.539062 144.871094 117.273438 C 137.753906 113.375 143.289062 116.3125 135.058594 110.851562 L 134.546875 111.464844 L 139.570312 116.019531 L 135.253906 115.488281 C 136.128906 116.074219 136.613281 116.570312 137.191406 116.757812 C 142.683594 118.546875 145.359375 118.675781 147.214844 119.746094 C 148.953125 120.75 150.382812 122.289062 151.773438 123.449219 C 148.242188 125.152344 144.746094 124.519531 141.5 121.953125 C 139.863281 120.660156 135.917969 120.855469 134.246094 115.054688 C 133.433594 112.253906 129.433594 110.019531 126.246094 110.253906 C 130.566406 112.558594 133.25 113.203125 133.242188 117.300781 C 130.230469 115.476562 127.597656 113.214844 123.761719 113.554688 L 131.359375 118.042969 L 131.027344 118.964844 L 122.082031 117.746094 C 125.175781 119.886719 128.523438 120.613281 132.265625 119.921875 C 134.472656 119.515625 135.101562 120.050781 136.078125 122.121094 L 131.1875 122.847656 C 132.503906 124.179688 133.070312 123.304688 139.984375 123.988281 C 141.15625 124.101562 142.289062 124.636719 143.4375 124.980469 L 143.28125 125.480469 C 139.96875 126.234375 136.800781 125.578125 133.632812 124.5625 C 131.972656 124.03125 130.222656 123.78125 128.515625 123.402344 L 128.375 124.011719 C 132.984375 126.015625 137.566406 128.128906 142.957031 127.511719 C 141.984375 128.320312 140.859375 129.328125 139.984375 129.140625 C 131.71875 127.375 132.492188 127.78125 124.070312 127.0625 L 124.011719 127.578125 L 128.75 128.691406 L 128.785156 129.074219 L 125.152344 130.535156 L 125.214844 130.964844 C 126.304688 130.789062 127.550781 130.886719 128.460938 130.382812 C 131.542969 128.679688 134.535156 128.832031 137.617188 130.246094 C 138.203125 130.515625 138.871094 130.609375 139.578125 130.804688 C 136.355469 133.46875 133.285156 136.296875 128.566406 135.523438 C 129.988281 136.945312 131.589844 136.835938 133.179688 136.605469 C 136.25 136.167969 138.4375 134.253906 140.464844 132.097656 C 142.417969 130.023438 144.894531 129.988281 147.382812 129.992188 L 147.621094 130.609375 L 141.050781 133.753906 L 141.292969 134.21875 L 143.660156 133.230469 C 143.269531 133.957031 142.679688 134.445312 142.179688 135.011719 C 141.714844 135.535156 141.347656 136.148438 140.941406 136.722656 C 145.609375 132.671875 150.53125 129.707031 157.386719 130.519531 C 153.144531 133.882812 148.386719 135.457031 143.941406 137.59375 L 144.179688 138.242188 L 152.921875 135.515625 C 150.628906 139.644531 146.441406 140.050781 142.355469 140.535156 C 142.4375 140.863281 142.433594 140.941406 142.46875 140.964844 C 142.554688 141.03125 142.660156 141.109375 142.757812 141.113281 C 152.46875 141.425781 152.324219 139.429688 156.28125 134.832031 C 159.570312 131.011719 166.578125 128.136719 172.089844 131.425781 C 175.351562 133.371094 177.597656 136.128906 179.007812 139.628906 C 180.734375 143.90625 179.820312 148.234375 179.445312 152.601562 C 178.945312 158.421875 175.949219 162.128906 170.660156 164.191406 C 166.59375 165.777344 163.738281 166.496094 160.140625 169.914062 C 157.734375 172.195312 149.355469 176.488281 143.882812 179.257812 C 140.621094 180.910156 137.484375 180.164062 131.351562 180.691406 C 129.210938 180.875 127.097656 181.394531 124.976562 181.765625 L 125.066406 182.296875 C 126.652344 182.296875 136.765625 181.964844 141.476562 181.667969 C 144.523438 181.476562 147.9375 179.25 153.554688 176.476562 C 154.394531 176.0625 155.316406 175.804688 156.203125 175.472656 L 156.46875 176.144531 C 150.855469 182.550781 143.765625 185.675781 134.957031 184.976562 L 135.101562 185.824219 C 137.859375 185.945312 140.738281 186.632812 143.355469 186.070312 C 149.382812 184.78125 154.703125 181.894531 158.382812 176.699219 C 161.6875 172.03125 166.015625 169.238281 171.703125 168.554688 C 173.097656 168.386719 173.613281 168.871094 173.730469 170.25 C 174.007812 173.507812 170.902344 173.386719 163.15625 177.960938 C 159.738281 179.980469 159.761719 181.703125 157.304688 188.28125 C 162.050781 187.164062 158.585938 182.851562 165.566406 179.855469 C 168.234375 178.707031 170.878906 177.464844 173.394531 176.019531 C 176.207031 174.40625 177.925781 171.835938 177.699219 168.535156 C 177.558594 166.472656 178.246094 165.339844 180.015625 164.535156 C 181.109375 166.945312 181.171875 169.410156 180.484375 171.921875 C 179.320312 176.164062 176.25 178.65625 172.582031 180.617188 C 162.019531 186.269531 158.035156 188.613281 154.488281 190.113281 C 150.777344 191.6875 148.410156 195.613281 149.183594 199.855469 C 150.023438 198.582031 150.898438 197.28125 151.339844 195.84375 C 151.972656 193.800781 153.28125 192.726562 155.1875 191.988281 C 158.53125 190.691406 162.914062 188.496094 169.359375 185.933594 C 169.867188 185.730469 170.464844 185.761719 171.199219 185.660156 C 170.003906 187.960938 168.691406 189.890625 167.972656 192.019531 C 167.054688 194.726562 167.8125 197.253906 169.558594 198.34375 C 169.558594 194.40625 169.585938 190.71875 172.480469 187.566406 C 175.089844 184.71875 177.171875 181.410156 181.199219 180.316406 C 182.203125 181.359375 182.28125 182.507812 181.535156 183.691406 C 178.976562 187.75 177.042969 189.316406 177.679688 191.648438 C 178.558594 194.863281 177.640625 197.433594 175.351562 199.746094 C 173.890625 201.21875 174.171875 203.078125 174.570312 204.898438 C 175.339844 203.417969 175.835938 201.828125 176.835938 200.675781 C 179.175781 197.988281 180.355469 195.035156 180.160156 191.441406 C 180.027344 188.964844 182.375 187.097656 184.765625 184.515625 C 185.722656 187.082031 186.984375 189.28125 186.601562 192.152344 C 186.234375 194.9375 186.523438 197.8125 186.523438 200.652344 L 186.945312 200.703125 L 187.453125 199.65625 L 187.933594 201.03125 L 188.542969 200.988281 C 188.566406 198.265625 188.839844 195.519531 188.550781 192.832031 C 188.234375 189.886719 189.144531 187.367188 190.265625 184.660156 C 191.246094 185.707031 192.070312 186.703125 193.015625 187.5625 C 194.402344 188.8125 194.949219 190.273438 195 192.164062 C 195.144531 197.402344 196.636719 198.4375 200.554688 204.453125 C 201.972656 198.921875 196.171875 198.398438 197.210938 194.074219 C 198.015625 190.738281 196.710938 188.210938 194.746094 185.722656 C 193.980469 184.753906 193.527344 183.464844 193.199219 182.25 C 193.019531 181.585938 193.40625 180.773438 193.539062 180.03125 C 194.175781 180.296875 194.820312 180.550781 195.453125 180.839844 C 199.984375 182.90625 202.050781 187.707031 204.40625 191.226562 C 205.117188 192.289062 204.945312 196.394531 204.945312 198.132812 L 205.625 198.289062 C 205.867188 197.835938 206.167969 197.402344 206.347656 196.925781 C 207.40625 194.074219 206.921875 191.425781 205.273438 188.921875 C 204.667969 187.996094 204.160156 187.007812 203.605469 186.046875 L 204.046875 185.585938 C 204.824219 185.804688 205.640625 185.925781 206.371094 186.25 C 210.203125 187.945312 213.910156 189.992188 217.859375 191.328125 C 221.027344 192.398438 223.386719 193.738281 224.175781 197.226562 C 224.394531 198.199219 225.328125 199.011719 225.933594 199.898438 L 226.363281 199.609375 C 226.167969 198.742188 225.914062 197.878906 225.792969 197 C 225.253906 193.101562 223.035156 190.808594 219.300781 189.726562 C 215.703125 188.6875 205.507812 182.554688 202.515625 180.664062 C 200.273438 179.246094 198.078125 177.605469 196.265625 175.683594 C 193.441406 172.695312 193.347656 166.949219 195.191406 164.542969 L 197.472656 166.144531 C 196.953125 172.171875 198.558594 174.902344 204.164062 177.496094 C 209.050781 179.761719 213.695312 180.996094 214.832031 186.242188 C 215.089844 187.417969 216 188.160156 217.441406 188.136719 C 214.09375 178.371094 215.523438 180.292969 204.648438 174.195312 C 202.511719 172.992188 201.039062 173.175781 201.507812 169.199219 C 201.628906 168.148438 210.691406 168.257812 216.304688 176.34375 C 218.765625 179.890625 222.234375 182.023438 225.863281 184.089844 C 229.851562 186.363281 234.003906 186.691406 238.367188 185.773438 C 243.476562 184.703125 233.585938 186.167969 227.980469 183.046875 C 224.496094 181.109375 220.53125 179.808594 218.585938 175.371094 C 219.472656 175.667969 220.105469 175.800781 220.660156 176.082031 C 236.195312 183.980469 226.941406 180.875 249.882812 182.292969 C 249.699219 181.824219 249.46875 181.667969 249.222656 181.644531 C 244.894531 181.199219 240.570312 180.585938 236.230469 180.410156 C 233.777344 180.3125 231.695312 179.722656 229.609375 178.484375 C 224.910156 175.699219 217.65625 172.472656 216.363281 171.28125 C 212.617188 167.828125 208.214844 165.613281 203.535156 163.808594 C 202.554688 163.429688 201.65625 162.824219 200.742188 162.28125 C 195.96875 159.429688 195.523438 155.359375 194.820312 145.421875 C 194.570312 141.851562 195.855469 138.691406 197.90625 135.832031 C 203.238281 128.402344 212.808594 127.980469 218.785156 134.917969 C 219.703125 135.980469 220.527344 137.121094 221.460938 138.167969 C 223.648438 140.632812 229.164062 141.960938 232.875 140.644531 C 228.433594 140 224.332031 139.53125 221.988281 135.488281 L 230.300781 138.085938 L 230.445312 137.613281 L 217.757812 131.214844 L 218.027344 130.671875 C 224.472656 129.597656 229.21875 132.945312 233.890625 136.757812 L 231.265625 133.429688 L 233.960938 134.144531 L 234.125 133.757812 L 227.59375 130.730469 L 227.757812 130.238281 C 230.589844 129.550781 233.160156 130.46875 235.070312 132.675781 C 237.289062 135.234375 240.039062 136.898438 243.558594 136.699219 C 244.5625 136.644531 245.546875 136.199219 246.535156 135.933594 L 246.398438 135.511719 C 241.238281 135.191406 237.695312 133.621094 235.65625 130.710938 C 237.539062 130.140625 239.410156 129.121094 241.269531 129.136719 C 243.171875 129.15625 245.050781 130.261719 246.976562 130.75 C 247.761719 130.949219 248.644531 130.78125 249.480469 130.78125 C 249.386719 130.445312 249.5625 130.609375 246.003906 129.136719 L 246.121094 128.769531 Z M 218.261719 65.445312 L 218.953125 65.863281 L 215.894531 70.960938 L 215.195312 70.542969 Z M 158.941406 70.769531 L 155.804688 66.050781 L 156.507812 65.605469 L 159.5625 70.363281 Z M 145.058594 112.003906 C 146.234375 112.613281 145.09375 111.949219 161.335938 122.023438 C 154.621094 123.863281 147.121094 119.445312 145.058594 112.003906 Z M 145.289062 128.464844 C 148.234375 125.269531 160.199219 124.152344 165.132812 126.789062 C 158.445312 128.839844 151.910156 128.832031 145.289062 128.464844 Z M 212.472656 93.617188 C 214.167969 91.355469 216.375 89.476562 218.304688 87.476562 C 219.859375 92.484375 214.9375 99.339844 208.160156 101.105469 C 209.640625 98.484375 210.800781 95.855469 212.472656 93.617188 Z M 210.441406 77.582031 C 211.5 86.636719 210.578125 95.144531 203.039062 101.628906 C 201.191406 92.914062 204.597656 81.886719 210.441406 77.582031 Z M 199.582031 86.671875 C 200.855469 85.414062 202.203125 84.234375 203.296875 83.234375 L 200.949219 90.585938 C 200.316406 89.53125 199.746094 88.714844 199.339844 87.828125 C 199.203125 87.53125 199.339844 86.910156 199.582031 86.671875 Z M 187.332031 78.746094 C 189.175781 84.175781 188.910156 89.5625 187.390625 94.941406 C 185.730469 89.539062 185.703125 84.132812 187.332031 78.746094 Z M 156.335938 87.207031 C 160.238281 91.542969 164.894531 95.179688 166.234375 100.980469 C 159.449219 98.582031 155.425781 93.300781 156.335938 87.207031 Z M 164.289062 77.007812 C 165.910156 78.738281 167.5625 79.976562 168.523438 81.621094 C 172.191406 87.890625 172.203125 94.886719 172.34375 102.070312 C 166.375 98.097656 163.597656 89.453125 164.289062 77.007812 Z M 172.632812 86.488281 C 172.257812 85.277344 171.75 84.109375 171.519531 82.746094 L 175.738281 87.550781 L 173.679688 90.601562 C 173.273438 88.972656 173.015625 87.710938 172.632812 86.488281 Z M 182.679688 113.65625 C 175.085938 107.058594 172.492188 97.359375 177.238281 89.898438 C 177.492188 90.21875 177.796875 90.472656 177.929688 90.796875 C 184.746094 107.675781 184.4375 105.648438 183.960938 111.226562 C 183.894531 112.019531 183.175781 112.753906 182.679688 113.65625 Z M 187.796875 186.832031 C 186.546875 184.03125 185.535156 181.667969 184.4375 179.347656 C 182.808594 175.910156 187.402344 172.722656 186.148438 167.527344 C 185.964844 166.773438 185.800781 165.953125 185.378906 165.332031 C 183.769531 162.96875 187.203125 161.382812 188.519531 162.125 C 189.554688 162.710938 190.429688 163.808594 189.714844 165.222656 C 188.164062 168.273438 188.582031 171.234375 189.753906 174.304688 C 190.929688 177.390625 189.730469 179.867188 187.796875 186.832031 Z M 190.675781 106.4375 C 192.070312 101.722656 194.832031 94.769531 197.042969 89.652344 C 202.347656 95.515625 200.644531 106.628906 192.128906 113.550781 C 189.882812 111.535156 189.960938 108.863281 190.675781 106.4375 Z M 229.679688 112.253906 C 228.292969 119.113281 222.398438 122.714844 213.34375 122.191406 Z M 209.910156 126.832031 C 213.824219 124.203125 225.867188 125.25 229.523438 128.519531 C 222.867188 128.757812 216.386719 128.816406 209.910156 126.832031 Z M 209.910156 126.832031 " fill-opacity="1" fill-rule="nonzero"/></g><g fill="#000000" fill-opacity="1"><g transform="translate(117.191335, 254.889341)"><g><path d="M 30.265625 -33.75 L 35.765625 -33.75 L 21.265625 0 L 15.765625 0 L 1.28125 -33.75 L 6.78125 -33.75 L 18.515625 -6.390625 Z M 30.265625 -33.75 "/></g></g></g><g fill="#000000" fill-opacity="1"><g transform="translate(154.23111, 254.889341)"><g><path d="M 15.578125 0.59375 C 13.773438 0.59375 12.0625 0.242188 10.4375 -0.453125 C 8.8125 -1.160156 7.378906 -2.128906 6.140625 -3.359375 C 4.898438 -4.585938 3.925781 -6.003906 3.21875 -7.609375 C 2.507812 -9.210938 2.15625 -10.914062 2.15625 -12.71875 C 2.15625 -14.519531 2.507812 -16.222656 3.21875 -17.828125 C 3.925781 -19.429688 4.898438 -20.835938 6.140625 -22.046875 C 7.378906 -23.265625 8.8125 -24.222656 10.4375 -24.921875 C 12.0625 -25.628906 13.773438 -25.984375 15.578125 -25.984375 C 17.378906 -25.984375 19.082031 -25.628906 20.6875 -24.921875 C 22.289062 -24.222656 23.703125 -23.265625 24.921875 -22.046875 C 26.148438 -20.835938 27.117188 -19.429688 27.828125 -17.828125 C 28.535156 -16.222656 28.890625 -14.519531 28.890625 -12.71875 C 28.890625 -10.914062 28.535156 -9.210938 27.828125 -7.609375 C 27.117188 -6.003906 26.148438 -4.585938 24.921875 -3.359375 C 23.703125 -2.128906 22.289062 -1.160156 20.6875 -0.453125 C 19.082031 0.242188 17.378906 0.59375 15.578125 0.59375 Z M 15.578125 -3.640625 C 17.109375 -3.640625 18.515625 -4.046875 19.796875 -4.859375 C 21.078125 -5.679688 22.097656 -6.785156 22.859375 -8.171875 C 23.628906 -9.566406 24.015625 -11.082031 24.015625 -12.71875 C 24.015625 -14.351562 23.628906 -15.859375 22.859375 -17.234375 C 22.097656 -18.617188 21.078125 -19.71875 19.796875 -20.53125 C 18.515625 -21.351562 17.109375 -21.765625 15.578125 -21.765625 C 14.035156 -21.765625 12.609375 -21.351562 11.296875 -20.53125 C 9.984375 -19.71875 8.941406 -18.617188 8.171875 -17.234375 C 7.410156 -15.859375 7.03125 -14.351562 7.03125 -12.71875 C 7.03125 -11.082031 7.410156 -9.566406 8.171875 -8.171875 C 8.941406 -6.785156 9.984375 -5.679688 11.296875 -4.859375 C 12.609375 -4.046875 14.035156 -3.640625 15.578125 -3.640625 Z M 15.578125 -3.640625 "/></g></g></g><g fill="#000000" fill-opacity="1"><g transform="translate(185.27771, 254.889341)"><g><path d="M 22.84375 -25.390625 L 27.703125 -25.390625 L 27.703125 -2.703125 C 27.703125 -0.535156 27.15625 1.382812 26.0625 3.0625 C 24.96875 4.75 23.453125 6.066406 21.515625 7.015625 C 19.585938 7.972656 17.359375 8.453125 14.828125 8.453125 C 12.703125 8.453125 10.707031 8.128906 8.84375 7.484375 C 6.976562 6.847656 5.4375 6.039062 4.21875 5.0625 L 6.140625 1.421875 C 7.085938 2.304688 8.273438 2.992188 9.703125 3.484375 C 11.128906 3.972656 12.59375 4.21875 14.09375 4.21875 C 16.8125 4.21875 18.945312 3.59375 20.5 2.34375 C 22.0625 1.101562 22.84375 -0.609375 22.84375 -2.796875 L 22.84375 -6.484375 C 21.820312 -5.046875 20.550781 -3.914062 19.03125 -3.09375 C 17.507812 -2.269531 15.785156 -1.859375 13.859375 -1.859375 C 11.628906 -1.859375 9.644531 -2.375 7.90625 -3.40625 C 6.175781 -4.445312 4.8125 -5.875 3.8125 -7.6875 C 2.8125 -9.507812 2.3125 -11.597656 2.3125 -13.953125 C 2.3125 -16.304688 2.8125 -18.390625 3.8125 -20.203125 C 4.8125 -22.023438 6.175781 -23.441406 7.90625 -24.453125 C 9.644531 -25.472656 11.628906 -25.984375 13.859375 -25.984375 C 15.785156 -25.984375 17.523438 -25.566406 19.078125 -24.734375 C 20.640625 -23.898438 21.894531 -22.757812 22.84375 -21.3125 Z M 15.078125 -6.09375 C 16.585938 -6.09375 17.921875 -6.425781 19.078125 -7.09375 C 20.242188 -7.769531 21.160156 -8.695312 21.828125 -9.875 C 22.503906 -11.050781 22.84375 -12.410156 22.84375 -13.953125 C 22.84375 -15.492188 22.503906 -16.84375 21.828125 -18 C 21.160156 -19.164062 20.242188 -20.082031 19.078125 -20.75 C 17.921875 -21.425781 16.585938 -21.765625 15.078125 -21.765625 C 13.578125 -21.765625 12.242188 -21.425781 11.078125 -20.75 C 9.910156 -20.082031 9 -19.164062 8.34375 -18 C 7.695312 -16.84375 7.375 -15.492188 7.375 -13.953125 C 7.375 -11.660156 8.09375 -9.773438 9.53125 -8.296875 C 10.96875 -6.828125 12.816406 -6.09375 15.078125 -6.09375 Z M 15.078125 -6.09375 "/></g></g></g><g fill="#000000" fill-opacity="1"><g transform="translate(216.717303, 254.889341)"><g><path d="M 15.171875 -3.734375 C 16.515625 -3.734375 17.875 -3.992188 19.25 -4.515625 C 20.625 -5.046875 21.691406 -5.703125 22.453125 -6.484375 L 25.5 -3.34375 C 24.738281 -2.550781 23.785156 -1.859375 22.640625 -1.265625 C 21.492188 -0.679688 20.273438 -0.226562 18.984375 0.09375 C 17.691406 0.425781 16.441406 0.59375 15.234375 0.59375 C 12.867188 0.59375 10.695312 0.0195312 8.71875 -1.125 C 6.738281 -2.269531 5.148438 -3.847656 3.953125 -5.859375 C 2.753906 -7.878906 2.15625 -10.179688 2.15625 -12.765625 C 2.15625 -15.328125 2.71875 -17.597656 3.84375 -19.578125 C 4.976562 -21.554688 6.507812 -23.117188 8.4375 -24.265625 C 10.375 -25.410156 12.503906 -25.984375 14.828125 -25.984375 C 17.421875 -25.984375 19.625 -25.367188 21.4375 -24.140625 C 23.257812 -22.910156 24.648438 -21.175781 25.609375 -18.9375 C 26.578125 -16.695312 27.0625 -14.050781 27.0625 -11 L 7.078125 -11 C 7.398438 -8.90625 8.28125 -7.171875 9.71875 -5.796875 C 11.164062 -4.421875 12.984375 -3.734375 15.171875 -3.734375 Z M 15.03125 -21.671875 C 13.0625 -21.671875 11.347656 -21.054688 9.890625 -19.828125 C 8.441406 -18.597656 7.519531 -16.953125 7.125 -14.890625 L 22.359375 -14.890625 C 22.085938 -16.847656 21.347656 -18.46875 20.140625 -19.75 C 18.929688 -21.03125 17.226562 -21.671875 15.03125 -21.671875 Z M 15.03125 -21.671875 "/></g></g></g><g fill="#000000" fill-opacity="1"><g transform="translate(245.897171, 254.889341)"><g><path d="M 3.53125 0 L 3.53125 -34.34375 L 8.34375 -34.34375 L 8.34375 0 Z M 3.53125 0 "/></g></g></g><g fill="#000000" fill-opacity="1"><g transform="translate(127.232155, 322.835821)"><g><path d="M 8.25 -4.625 L 26.140625 -4.625 L 26.140625 0 L 3.25 0 L 3.25 -33.75 L 8.25 -33.75 Z M 8.25 -4.625 "/></g></g></g><g fill="#000000" fill-opacity="1"><g transform="translate(154.889167, 322.835821)"><g><path d="M 5.9375 -29.625 C 5.125 -29.625 4.429688 -29.914062 3.859375 -30.5 C 3.285156 -31.09375 3 -31.78125 3 -32.5625 C 3 -33.320312 3.285156 -33.992188 3.859375 -34.578125 C 4.429688 -35.171875 5.125 -35.46875 5.9375 -35.46875 C 6.726562 -35.46875 7.410156 -35.171875 7.984375 -34.578125 C 8.554688 -33.992188 8.84375 -33.320312 8.84375 -32.5625 C 8.84375 -31.78125 8.554688 -31.09375 7.984375 -30.5 C 7.410156 -29.914062 6.726562 -29.625 5.9375 -29.625 Z M 3.484375 0 L 3.484375 -25.390625 L 8.34375 -25.390625 L 8.34375 0 Z M 3.484375 0 "/></g></g></g><g fill="#000000" fill-opacity="1"><g transform="translate(166.728134, 322.835821)"><g><path d="M 16.453125 -25.984375 C 18.316406 -25.984375 19.96875 -25.566406 21.40625 -24.734375 C 22.851562 -23.898438 23.976562 -22.742188 24.78125 -21.265625 C 25.582031 -19.796875 25.984375 -18.09375 25.984375 -16.15625 L 25.984375 0 L 21.21875 0 L 21.21875 -15.328125 C 21.21875 -17.222656 20.675781 -18.769531 19.59375 -19.96875 C 18.519531 -21.164062 17.113281 -21.765625 15.375 -21.765625 C 14.195312 -21.765625 13.097656 -21.523438 12.078125 -21.046875 C 11.066406 -20.578125 10.234375 -19.945312 9.578125 -19.15625 C 8.921875 -18.375 8.53125 -17.472656 8.40625 -16.453125 L 8.40625 0 L 3.53125 0 L 3.53125 -25.390625 L 8.40625 -25.390625 L 8.40625 -21.71875 C 9.15625 -22.957031 10.257812 -23.976562 11.71875 -24.78125 C 13.175781 -25.582031 14.753906 -25.984375 16.453125 -25.984375 Z M 16.453125 -25.984375 "/></g></g></g><g fill="#000000" fill-opacity="1"><g transform="translate(196.15363, 322.835821)"><g><path d="M 26.625 -25.390625 L 15.671875 -13.90625 L 26.140625 0 L 20.34375 0 L 12.375 -10.65625 L 8.296875 -6.53125 L 8.296875 0 L 3.484375 0 L 3.484375 -34.34375 L 8.296875 -34.34375 L 8.296875 -12.421875 L 20.734375 -25.390625 Z M 26.625 -25.390625 "/></g></g></g><g fill="#000000" fill-opacity="1"><g transform="translate(223.270286, 322.835821)"><g><path d="M 12.71875 0.59375 C 10.851562 0.59375 8.960938 0.265625 7.046875 -0.390625 C 5.128906 -1.046875 3.398438 -1.976562 1.859375 -3.1875 L 4.171875 -6.6875 C 5.515625 -5.695312 6.90625 -4.929688 8.34375 -4.390625 C 9.789062 -3.859375 11.265625 -3.59375 12.765625 -3.59375 C 14.210938 -3.59375 15.378906 -3.894531 16.265625 -4.5 C 17.148438 -5.101562 17.59375 -5.894531 17.59375 -6.875 C 17.59375 -7.664062 17.328125 -8.296875 16.796875 -8.765625 C 16.273438 -9.242188 15.578125 -9.640625 14.703125 -9.953125 C 13.835938 -10.265625 12.882812 -10.566406 11.84375 -10.859375 C 8.925781 -11.671875 6.738281 -12.59375 5.28125 -13.625 C 3.820312 -14.65625 3.09375 -16.207031 3.09375 -18.28125 C 3.09375 -19.84375 3.484375 -21.195312 4.265625 -22.34375 C 5.054688 -23.5 6.144531 -24.394531 7.53125 -25.03125 C 8.925781 -25.664062 10.523438 -25.984375 12.328125 -25.984375 C 13.960938 -25.984375 15.59375 -25.722656 17.21875 -25.203125 C 18.84375 -24.679688 20.34375 -23.960938 21.71875 -23.046875 L 19.546875 -19.453125 C 17.023438 -21.023438 14.617188 -21.8125 12.328125 -21.8125 C 11.085938 -21.8125 10.03125 -21.546875 9.15625 -21.015625 C 8.289062 -20.492188 7.859375 -19.757812 7.859375 -18.8125 C 7.859375 -17.832031 8.300781 -17.101562 9.1875 -16.625 C 10.070312 -16.15625 11.578125 -15.59375 13.703125 -14.9375 C 15.109375 -14.539062 16.46875 -14.070312 17.78125 -13.53125 C 19.09375 -12.988281 20.179688 -12.234375 21.046875 -11.265625 C 21.921875 -10.304688 22.359375 -8.972656 22.359375 -7.265625 C 22.359375 -5.660156 21.9375 -4.269531 21.09375 -3.09375 C 20.257812 -1.914062 19.125 -1.003906 17.6875 -0.359375 C 16.25 0.273438 14.59375 0.59375 12.71875 0.59375 Z M 12.71875 0.59375 "/></g></g></g></svg>